REM DIRINDEX 1\2,1\3
REM DIRNAME folder01,folder02,folder03
TITLE ""
FILE "sample sentencesTrack07.mp3" MP3
  TRACK 01 AUDIO
    TITLE "3:cjc143_2493"
    INDEX 01 00:00:00
  TRACK 02 AUDIO
    TITLE "0:"
    INDEX 01 00:00:52
  TRACK 03 AUDIO
    TITLE "3:cjc143_2494"
    INDEX 01 00:01:22
  TRACK 04 AUDIO
    TITLE "0:"
    INDEX 01 00:04:07
  TRACK 05 AUDIO
    TITLE "3:cjc143_2495"
    INDEX 01 00:05:14
  TRACK 06 AUDIO
    TITLE "0:"
    INDEX 01 00:07:43
  TRACK 07 AUDIO
    TITLE "3:cjc143_2496"
    INDEX 01 00:08:48
  TRACK 08 AUDIO
    TITLE "0:"
    INDEX 01 00:11:09
  TRACK 09 AUDIO
    TITLE "3:cjc143_2497"
    INDEX 01 00:12:16
  TRACK 10 AUDIO
    TITLE "0:"
    INDEX 01 00:14:23
  TRACK 11 AUDIO
    TITLE "3:cjc143_2498"
    INDEX 01 00:15:28
  TRACK 12 AUDIO
    TITLE "0:"
    INDEX 01 00:18:70
  TRACK 13 AUDIO
    TITLE "3:cjc143_2499"
    INDEX 01 00:20:08
  TRACK 14 AUDIO
    TITLE "0:"
    INDEX 01 00:22:34
  TRACK 15 AUDIO
    TITLE "3:cjc143_2500"
    INDEX 01 00:23:44
  TRACK 16 AUDIO
    TITLE "0:"
    INDEX 01 00:25:46
  TRACK 17 AUDIO
    TITLE "3:cjc143_2501"
    INDEX 01 00:26:52
  TRACK 18 AUDIO
    TITLE "0:"
    INDEX 01 00:29:29
  TRACK 19 AUDIO
    TITLE "3:cjc143_2502"
    INDEX 01 00:30:36
  TRACK 20 AUDIO
    TITLE "0:"
    INDEX 01 00:32:25
  TRACK 21 AUDIO
    TITLE "3:cjc143_2503"
    INDEX 01 00:33:38
  TRACK 22 AUDIO
    TITLE "0:"
    INDEX 01 00:36:33
  TRACK 23 AUDIO
    TITLE "3:cjc143_2504"
    INDEX 01 00:37:40
  TRACK 24 AUDIO
    TITLE "0:"
    INDEX 01 00:39:68
  TRACK 25 AUDIO
    TITLE "3:cjc143_2505"
    INDEX 01 00:41:00
  TRACK 26 AUDIO
    TITLE "0:"
    INDEX 01 00:42:53
  TRACK 27 AUDIO
    TITLE "3:cjc143_2506"
    INDEX 01 00:43:68
  TRACK 28 AUDIO
    TITLE "0:"
    INDEX 01 00:45:43
  TRACK 29 AUDIO
    TITLE "3:cjc143_2507"
    INDEX 01 00:46:53
  TRACK 30 AUDIO
    TITLE "0:"
    INDEX 01 00:50:52
  TRACK 31 AUDIO
    TITLE "3:cjc143_2508"
    INDEX 01 00:51:71
  TRACK 32 AUDIO
    TITLE "0:"
    INDEX 01 00:56:16
  TRACK 33 AUDIO
    TITLE "3:cjc143_2509"
    INDEX 01 00:57:23
  TRACK 34 AUDIO
    TITLE "0:"
    INDEX 01 00:59:69
  TRACK 35 AUDIO
    TITLE "3:cjc143_2510"
    INDEX 01 01:01:05
  TRACK 36 AUDIO
    TITLE "0:"
    INDEX 01 01:04:11
  TRACK 37 AUDIO
    TITLE "3:cjc143_2511"
    INDEX 01 01:05:17
  TRACK 38 AUDIO
    TITLE "0:"
    INDEX 01 01:07:74
  TRACK 39 AUDIO
    TITLE "3:cjc143_2512"
    INDEX 01 01:09:05
  TRACK 40 AUDIO
    TITLE "0:"
    INDEX 01 01:12:11
  TRACK 41 AUDIO
    TITLE "3:cjc143_2513"
    INDEX 01 01:13:22
  TRACK 42 AUDIO
    TITLE "0:"
    INDEX 01 01:15:46
  TRACK 43 AUDIO
    TITLE "3:cjc143_2514"
    INDEX 01 01:16:61
  TRACK 44 AUDIO
    TITLE "0:"
    INDEX 01 01:20:26
  TRACK 45 AUDIO
    TITLE "3:cjc143_2515"
    INDEX 01 01:21:37
  TRACK 46 AUDIO
    TITLE "0:"
    INDEX 01 01:23:34
  TRACK 47 AUDIO
    TITLE "3:cjc143_2516"
    INDEX 01 01:24:41
  TRACK 48 AUDIO
    TITLE "0:"
    INDEX 01 01:28:29
  TRACK 49 AUDIO
    TITLE "3:cjc143_2517"
    INDEX 01 01:29:35
  TRACK 50 AUDIO
    TITLE "0:"
    INDEX 01 01:32:04
  TRACK 51 AUDIO
    TITLE "3:cjc143_2518"
    INDEX 01 01:33:11
  TRACK 52 AUDIO
    TITLE "0:"
    INDEX 01 01:35:45
  TRACK 53 AUDIO
    TITLE "3:cjc143_2519"
    INDEX 01 01:36:52
  TRACK 54 AUDIO
    TITLE "0:"
    INDEX 01 01:40:21
  TRACK 55 AUDIO
    TITLE "3:cjc143_2520"
    INDEX 01 01:41:28
  TRACK 56 AUDIO
    TITLE "0:"
    INDEX 01 01:44:13
  TRACK 57 AUDIO
    TITLE "3:cjc143_2521"
    INDEX 01 01:45:22
  TRACK 58 AUDIO
    TITLE "0:"
    INDEX 01 01:47:62
  TRACK 59 AUDIO
    TITLE "3:cjc143_2522"
    INDEX 01 01:48:71
  TRACK 60 AUDIO
    TITLE "0:"
    INDEX 01 01:51:11
  TRACK 61 AUDIO
    TITLE "3:cjc143_2523"
    INDEX 01 01:52:20
  TRACK 62 AUDIO
    TITLE "0:"
    INDEX 01 01:54:33
  TRACK 63 AUDIO
    TITLE "3:cjc143_2524"
    INDEX 01 01:55:40
  TRACK 64 AUDIO
    TITLE "0:"
    INDEX 01 01:57:41
  TRACK 65 AUDIO
    TITLE "3:cjc143_2525"
    INDEX 01 01:58:58
  TRACK 66 AUDIO
    TITLE "0:"
    INDEX 01 02:00:74
  TRACK 67 AUDIO
    TITLE "3:cjc143_2526"
    INDEX 01 02:02:09
  TRACK 68 AUDIO
    TITLE "0:"
    INDEX 01 02:04:21
  TRACK 69 AUDIO
    TITLE "3:cjc143_2527"
    INDEX 01 02:05:29
  TRACK 70 AUDIO
    TITLE "0:"
    INDEX 01 02:08:11
  TRACK 71 AUDIO
    TITLE "3:cjc143_2528"
    INDEX 01 02:09:30
  TRACK 72 AUDIO
    TITLE "0:"
    INDEX 01 02:12:70
  TRACK 73 AUDIO
    TITLE "3:cjc143_2529"
    INDEX 01 02:14:02
  TRACK 74 AUDIO
    TITLE "0:"
    INDEX 01 02:16:64
  TRACK 75 AUDIO
    TITLE "3:cjc143_2530"
    INDEX 01 02:17:73
  TRACK 76 AUDIO
    TITLE "0:"
    INDEX 01 02:20:61
  TRACK 77 AUDIO
    TITLE "3:cjc143_2531"
    INDEX 01 02:21:69
  TRACK 78 AUDIO
    TITLE "0:"
    INDEX 01 02:26:05
  TRACK 79 AUDIO
    TITLE "3:cjc143_2532"
    INDEX 01 02:27:11
  TRACK 80 AUDIO
    TITLE "0:"
    INDEX 01 02:29:64
  TRACK 81 AUDIO
    TITLE "3:cjc143_2533"
    INDEX 01 02:30:72
  TRACK 82 AUDIO
    TITLE "0:"
    INDEX 01 02:35:24
  TRACK 83 AUDIO
    TITLE "3:cjc143_2534"
    INDEX 01 02:36:29
  TRACK 84 AUDIO
    TITLE "0:"
    INDEX 01 02:39:18
  TRACK 85 AUDIO
    TITLE "3:cjc143_2535"
    INDEX 01 02:40:23
  TRACK 86 AUDIO
    TITLE "0:"
    INDEX 01 02:44:05
  TRACK 87 AUDIO
    TITLE "3:cjc143_2536"
    INDEX 01 02:45:14
  TRACK 88 AUDIO
    TITLE "0:"
    INDEX 01 02:47:66
  TRACK 89 AUDIO
    TITLE "3:cjc143_2537"
    INDEX 01 02:48:73
  TRACK 90 AUDIO
    TITLE "0:"
    INDEX 01 02:52:32
  TRACK 91 AUDIO
    TITLE "3:cjc143_2538"
    INDEX 01 02:53:41
  TRACK 92 AUDIO
    TITLE "0:"
    INDEX 01 02:55:68
  TRACK 93 AUDIO
    TITLE "3:cjc143_2539"
    INDEX 01 02:57:04
  TRACK 94 AUDIO
    TITLE "0:"
    INDEX 01 03:00:16
  TRACK 95 AUDIO
    TITLE "3:cjc143_2540"
    INDEX 01 03:01:21
  TRACK 96 AUDIO
    TITLE "0:"
    INDEX 01 03:03:38
  TRACK 97 AUDIO
    TITLE "3:cjc143_2541"
    INDEX 01 03:04:57
  TRACK 98 AUDIO
    TITLE "0:"
    INDEX 01 03:08:33
  TRACK 99 AUDIO
    TITLE "3:cjc143_2542"
    INDEX 01 03:09:42
  TRACK 100 AUDIO
    TITLE "0:"
    INDEX 01 03:11:02
  TRACK 101 AUDIO
    TITLE "3:cjc143_2543"
    INDEX 01 03:12:09
  TRACK 102 AUDIO
    TITLE "0:"
    INDEX 01 03:14:61
  TRACK 103 AUDIO
    TITLE "3:cjc143_2544"
    INDEX 01 03:15:68
  TRACK 104 AUDIO
    TITLE "0:"
    INDEX 01 03:19:11
  TRACK 105 AUDIO
    TITLE "3:cjc143_2545"
    INDEX 01 03:20:23
  TRACK 106 AUDIO
    TITLE "0:"
    INDEX 01 03:22:74
  TRACK 107 AUDIO
    TITLE "3:cjc143_2546"
    INDEX 01 03:24:03
  TRACK 108 AUDIO
    TITLE "0:"
    INDEX 01 03:27:38
  TRACK 109 AUDIO
    TITLE "3:cjc143_2547"
    INDEX 01 03:28:49
  TRACK 110 AUDIO
    TITLE "0:"
    INDEX 01 03:31:26
  TRACK 111 AUDIO
    TITLE "3:cjc143_2548"
    INDEX 01 03:32:37
  TRACK 112 AUDIO
    TITLE "0:"
    INDEX 01 03:35:12
  TRACK 113 AUDIO
    TITLE "3:cjc143_2549"
    INDEX 01 03:36:20
  TRACK 114 AUDIO
    TITLE "0:"
    INDEX 01 03:38:28
  TRACK 115 AUDIO
    TITLE "3:cjc143_2550"
    INDEX 01 03:39:34
  TRACK 116 AUDIO
    TITLE "0:"
    INDEX 01 03:42:20
  TRACK 117 AUDIO
    TITLE "3:cjc143_2551"
    INDEX 01 03:43:33
  TRACK 118 AUDIO
    TITLE "0:"
    INDEX 01 03:45:30
  TRACK 119 AUDIO
    TITLE "3:cjc143_2552"
    INDEX 01 03:46:45
  TRACK 120 AUDIO
    TITLE "0:"
    INDEX 01 03:50:08
  TRACK 121 AUDIO
    TITLE "3:cjc143_2553"
    INDEX 01 03:51:17
  TRACK 122 AUDIO
    TITLE "0:"
    INDEX 01 03:54:55
  TRACK 123 AUDIO
    TITLE "3:cjc143_2554"
    INDEX 01 03:55:60
  TRACK 124 AUDIO
    TITLE "0:"
    INDEX 01 03:58:62
  TRACK 125 AUDIO
    TITLE "3:cjc143_2555"
    INDEX 01 03:59:72
  TRACK 126 AUDIO
    TITLE "0:"
    INDEX 01 04:02:41
  TRACK 127 AUDIO
    TITLE "3:cjc143_2556"
    INDEX 01 04:03:50
  TRACK 128 AUDIO
    TITLE "0:"
    INDEX 01 04:07:16
  TRACK 129 AUDIO
    TITLE "3:cjc143_2557"
    INDEX 01 04:08:29
  TRACK 130 AUDIO
    TITLE "0:"
    INDEX 01 04:11:26
  TRACK 131 AUDIO
    TITLE "3:cjc143_2558"
    INDEX 01 04:12:33
  TRACK 132 AUDIO
    TITLE "0:"
    INDEX 01 04:16:05
  TRACK 133 AUDIO
    TITLE "3:cjc143_2559"
    INDEX 01 04:17:22
  TRACK 134 AUDIO
    TITLE "0:"
    INDEX 01 04:19:47
  TRACK 135 AUDIO
    TITLE "3:cjc143_2560"
    INDEX 01 04:20:56
  TRACK 136 AUDIO
    TITLE "0:"
    INDEX 01 04:23:27
  TRACK 137 AUDIO
    TITLE "3:cjc143_2561"
    INDEX 01 04:24:34
  TRACK 138 AUDIO
    TITLE "0:"
    INDEX 01 04:27:52
  TRACK 139 AUDIO
    TITLE "3:cjc143_2562"
    INDEX 01 04:28:69
  TRACK 140 AUDIO
    TITLE "0:"
    INDEX 01 04:31:56
  TRACK 141 AUDIO
    TITLE "3:cjc143_2563"
    INDEX 01 04:32:69
  TRACK 142 AUDIO
    TITLE "0:"
    INDEX 01 04:35:40
  TRACK 143 AUDIO
    TITLE "3:cjc143_2564"
    INDEX 01 04:36:53
  TRACK 144 AUDIO
    TITLE "0:"
    INDEX 01 04:39:30
  TRACK 145 AUDIO
    TITLE "3:cjc143_2565"
    INDEX 01 04:40:53
  TRACK 146 AUDIO
    TITLE "0:"
    INDEX 01 04:43:53
  TRACK 147 AUDIO
    TITLE "3:cjc143_2566"
    INDEX 01 04:44:64
  TRACK 148 AUDIO
    TITLE "0:"
    INDEX 01 04:47:00
  TRACK 149 AUDIO
    TITLE "3:cjc143_2567"
    INDEX 01 04:48:11
  TRACK 150 AUDIO
    TITLE "0:"
    INDEX 01 04:52:62
  TRACK 151 AUDIO
    TITLE "3:cjc143_2568"
    INDEX 01 04:53:71
  TRACK 152 AUDIO
    TITLE "0:"
    INDEX 01 04:58:02
  TRACK 153 AUDIO
    TITLE "3:cjc143_2569"
    INDEX 01 04:59:09
  TRACK 154 AUDIO
    TITLE "0:"
    INDEX 01 05:01:41
